Coordinates
version=1
nRows=29
nColumns=33
inDegrees=yes

Units are S.I. units (second, meters, Newtons, ...)
Angles are in degrees.

endheader
time	ground_thorax_rot_x	ground_thorax_rot_y	ground_thorax_rot_z	ground_thorax_tx	ground_thorax_ty	ground_thorax_tz	clav_prot_r	clav_elev_r	scapula_abduction_r	scapula_elevation_r	scapula_upward_rot_r	scapula_winging_r	shoulder_elv_r	plane_of_elev_r	axial_rot_r	elbow_flexion_r	pro_sup_r	wrist_flex_r	wrist_dev_r	clav_prot_l	clav_elev_l	scapula_abduction_l	scapula_elevation_l	scapula_upward_rot_l	scapula_winging_l	shoulder_elv_l	plane_of_elev_l	axial_rot_l	elbow_flexion_l	pro_sup_l	wrist_flex_l	wrist_dev_l	
3.7900	-1.115468	1.580040	10.452304	-0.097602	1.033490	0.008492	9.998854	-9.942331	18.156186	-3.419178	1.423986	-4.101136	-59.875221	-71.956044	82.674023	-57.655886	-136.417080	47.999311	-25.000000	8.302871	-1.958069	-9.830109	-21.126799	-37.523175	-2.701749	57.716184	-39.085059	-1.497565	59.796442	24.600811	1.910935	-25.000000	
3.8000	-1.420796	1.874530	10.664357	-0.097977	1.032891	0.008396	9.675419	-10.181407	17.265216	-3.332003	0.683572	-3.624031	-57.878849	-71.849046	84.368723	-57.301093	-136.801691	49.759726	-25.000000	8.801648	-1.523220	-10.757578	-21.667001	-37.810757	-2.427026	57.236029	-38.330737	-1.129146	59.532076	25.124220	-0.395945	-25.000000	
3.8100	-1.737440	2.184232	10.869821	-0.098345	1.032324	0.008310	9.330921	-10.427415	16.324567	-3.239077	-0.086228	-3.122744	-55.765704	-71.747654	86.153424	-56.933007	-137.220336	51.594650	-25.000000	9.329795	-1.077517	-11.739289	-22.220860	-38.107727	-2.132349	56.743610	-37.540315	-0.729675	59.251210	25.679894	-2.819402	-25.000000	
3.8200	-1.896495	2.361617	10.974261	-0.098604	1.031958	0.008250	9.116801	-10.561211	15.778482	-3.199221	-0.480414	-2.837451	-54.555891	-71.671562	87.170898	-56.758601	-137.498304	52.561965	-24.999999	9.621478	-0.897401	-12.284268	-22.453564	-38.255377	-1.955057	56.486323	-37.068444	-0.470697	59.100101	26.003210	-4.158709	-25.000000	
3.8300	-1.978101	2.463833	11.035329	-0.098799	1.031701	0.008206	8.973792	-10.629205	15.441006	-3.178251	-0.683567	-2.668615	-53.834646	-71.623666	87.785112	-56.705004	-137.702541	53.074218	-24.999999	9.790507	-0.843747	-12.602202	-22.532273	-38.328439	-1.841138	56.366849	-36.772458	-0.296261	59.036633	26.207953	-4.928016	-24.999999	
3.8400	-1.996274	2.507998	11.054219	-0.098929	1.031522	0.008181	8.881561	-10.632766	15.259656	-3.161749	-0.733770	-2.593537	-53.506756	-71.610685	88.091549	-56.788538	-137.867918	53.206369	-24.999998	9.862503	-0.897362	-12.742916	-22.485636	-38.350351	-1.776999	56.377553	-36.624482	-0.190764	59.069919	26.331308	-5.242683	-24.999999	
3.8500	-1.992019	2.523251	11.065282	-0.099019	1.031371	0.008167	8.809695	-10.597022	15.136867	-3.131373	-0.730527	-2.559682	-53.358931	-71.638616	88.282154	-56.968761	-138.031584	53.168338	-24.999997	9.896638	-0.984775	-12.816545	-22.404112	-38.365120	-1.735128	56.468680	-36.550851	-0.132891	59.182219	26.434525	-5.370326	-24.999998	
3.8600	-1.986853	2.554452	11.079495	-0.099088	1.031215	0.008161	8.701925	-10.536420	14.933141	-3.061693	-0.767635	-2.502785	-53.136577	-71.737825	88.603246	-57.241815	-138.306000	53.100653	-24.999995	9.955850	-1.085451	-12.951940	-22.339395	-38.446492	-1.677699	56.623563	-36.477365	-0.095394	59.375948	26.624678	-5.591759	-24.999997	
3.8700	-1.981711	2.595450	11.101081	-0.099142	1.031078	0.008154	8.569878	-10.460694	14.672543	-2.965001	-0.836697	-2.428571	-52.859062	-71.899105	89.024740	-57.575888	-138.662849	53.005502	-24.999992	10.036154	-1.191597	-13.137482	-22.291673	-38.577981	-1.607397	56.825670	-36.401818	-0.083455	59.637290	26.876150	-5.883347	-24.999994	
3.8800	-1.978527	2.648811	11.112495	-0.099187	1.030934	0.008142	8.415696	-10.369058	14.364941	-2.846273	-0.924050	-2.341773	-52.528176	-72.116267	89.548171	-57.990706	-139.091516	52.886320	-24.999986	10.139477	-1.298348	-13.372103	-22.256780	-38.741197	-1.521699	57.065426	-36.320836	-0.088906	59.987916	27.168496	-6.238744	-24.999989	
3.8900	-1.988292	2.692375	11.120493	-0.099239	1.030797	0.008113	8.280632	-10.278087	14.095683	-2.733154	-0.998815	-2.270098	-52.233269	-72.349463	90.061073	-58.435642	-139.484979	52.777640	-24.999974	10.250042	-1.366655	-13.608979	-22.244410	-38.872701	-1.434047	57.300290	-36.239565	-0.116290	60.398439	27.412699	-6.575191	-24.999981	
3.9000	-2.012043	2.727058	11.121509	-0.099302	1.030634	0.008069	8.166593	-10.183896	13.871511	-2.625426	-1.053043	-2.218176	-51.982617	-72.593854	90.559247	-58.930408	-139.838810	52.682190	-24.999954	10.367167	-1.392598	-13.844917	-22.255473	-38.966203	-1.345362	57.528443	-36.159268	-0.165306	60.889611	27.593409	-6.888278	-24.999966	
3.9100	-2.053096	2.737972	11.120970	-0.099372	1.030474	0.008013	8.099476	-10.093773	13.749302	-2.540806	-1.059907	-2.205992	-51.835904	-72.808859	90.951801	-59.432470	-140.084604	52.620040	-24.999918	10.475061	-1.361662	-14.039750	-22.284715	-38.977903	-1.266859	57.721344	-36.086723	-0.225475	61.423284	27.642644	-7.115297	-24.999939	
3.9200	-2.106842	2.733894	11.114927	-0.099436	1.030288	0.007957	8.065754	-9.996372	13.704662	-2.468365	-1.021169	-2.228590	-51.768794	-72.997127	91.269105	-59.972693	-140.259454	52.579228	-24.999854	10.575119	-1.288152	-14.200742	-22.325015	-38.922946	-1.196516	57.891570	-36.022847	-0.284117	62.020404	27.569077	-7.275921	-24.999891	
3.9300	-2.163249	2.718465	11.110259	-0.099488	1.030126	0.007914	8.057273	-9.892575	13.723054	-2.408540	-0.938012	-2.279646	-51.754971	-73.158041	91.524799	-60.526193	-140.402456	52.532039	-24.999738	10.665165	-1.200472	-14.329906	-22.355389	-38.815847	-1.132135	58.046073	-35.964581	-0.328802	62.647848	27.367879	-7.372428	-24.999804	
3.9400	-2.209640	2.709794	11.107660	-0.099516	1.029995	0.007893	8.041012	-9.773770	13.737549	-2.344628	-0.832402	-2.335762	-51.711470	-73.321669	91.811961	-61.117026	-140.616135	52.434935	-24.999532	10.754708	-1.138234	-14.460457	-22.361193	-38.709703	-1.063729	58.216332	-35.901580	-0.350343	63.319226	27.091143	-7.459440	-24.999649	
3.9500	-2.237332	2.707655	11.114964	-0.099523	1.029918	0.007902	8.011818	-9.631890	13.737760	-2.268387	-0.706519	-2.395738	-51.606673	-73.496836	92.175403	-61.742152	-140.972871	52.228831	-24.999161	10.844345	-1.125934	-14.599070	-22.325268	-38.619290	-0.987687	58.404754	-35.840018	-0.340895	64.009644	26.664101	-7.522027	-24.999372	
3.9600	-2.252484	2.710929	11.125626	-0.099507	1.029872	0.007933	7.974222	-9.474928	13.730557	-2.185723	-0.563594	-2.459239	-51.433937	-73.676217	92.611293	-62.410115	-141.460523	51.933140	-24.998498	10.929989	-1.145941	-14.735451	-22.261824	-38.537421	-0.909421	58.609057	-35.766083	-0.292977	64.724270	26.095112	-7.534009	-24.998875	
3.9700	-2.259084	2.716452	11.134965	-0.099470	1.029859	0.007988	7.933870	-9.312553	13.726404	-2.105430	-0.403377	-2.526621	-51.191340	-73.853019	93.112996	-63.120657	-142.066966	51.561679	-24.997309	11.009900	-1.190237	-14.864292	-22.175919	-38.457871	-0.831483	58.830375	-35.669997	-0.204129	65.446586	25.397596	-7.468125	-24.997985	
3.9800	-2.263387	2.713934	11.137026	-0.099406	1.029866	0.008054	7.903832	-9.159445	13.745501	-2.037844	-0.232899	-2.599687	-50.866993	-74.016231	93.671230	-63.874083	-142.779426	51.145567	-24.995179	11.072936	-1.234075	-14.961678	-22.088927	-38.372813	-0.766410	59.066658	-35.530424	-0.063608	66.168600	24.581680	-7.230328	-24.996392	
3.9900	-2.266628	2.704229	11.133614	-0.099321	1.029888	0.008131	7.887268	-9.014972	13.795262	-1.983835	-0.048352	-2.681779	-50.471752	-74.161566	94.278001	-64.669382	-143.580785	50.685093	-24.991367	11.122672	-1.276443	-15.032899	-21.999614	-38.278022	-0.711514	59.319856	-35.350794	0.117323	66.881858	23.675903	-6.813221	-24.993533	
4.0000	-2.276738	2.684710	11.120953	-0.099205	1.029923	0.008211	7.891596	-8.890689	13.892874	-1.957059	0.157736	-2.775581	-50.032968	-74.267114	94.878000	-65.493566	-144.395506	50.227397	-24.984530	11.157484	-1.298512	-15.069898	-21.918889	-38.157184	-0.669768	59.585551	-35.122915	0.330523	67.575901	22.770385	-6.210120	-24.988429	
4.0100	-2.288628	2.657738	11.097355	-0.099067	1.029967	0.008292	7.919438	-8.772785	14.051576	-1.952969	0.404826	-2.892375	-49.565837	-74.330485	95.477539	-66.343216	-145.232070	49.719044	-24.972304	11.184583	-1.316251	-15.086236	-21.829464	-38.007752	-0.632929	59.864718	-34.860047	0.566582	68.247825	21.890238	-5.395701	-24.979235	
4.0200	-2.300520	2.623294	11.068384	-0.098906	1.030016	0.008374	7.971372	-8.656674	14.271219	-1.966332	0.690385	-3.033712	-49.064848	-74.349775	96.083715	-67.221183	-146.098682	49.127800	-24.950344	11.207671	-1.335127	-15.090503	-21.728109	-37.834765	-0.597148	60.155954	-34.564877	0.815526	68.882366	21.034734	-4.374011	-24.962908	
4.0300	-2.307021	2.593079	11.037780	-0.098735	1.030072	0.008456	8.041934	-8.534538	14.544420	-1.991760	1.018799	-3.200094	-48.536043	-74.329688	96.699627	-68.122413	-146.992010	48.411438	-24.911178	11.240179	-1.373844	-15.109512	-21.597534	-37.642366	-0.548768	60.459941	-34.246135	1.054006	69.469859	20.219264	-3.221667	-24.933269	
4.0400	-2.309178	2.562877	11.008433	-0.098560	1.030114	0.008533	8.142422	-8.404270	14.884390	-2.021853	1.376929	-3.396597	-47.943840	-74.256943	97.350066	-69.053700	-147.939628	47.477289	-24.840541	11.280994	-1.422325	-15.142014	-21.450688	-37.436843	-0.490845	60.775673	-33.888804	1.288136	69.994369	19.428476	-1.875147	-24.881271	
4.0500	-2.307534	2.534351	10.978979	-0.098392	1.030143	0.008595	8.275191	-8.274175	15.294084	-2.062147	1.760603	-3.621298	-47.268571	-74.139794	98.050990	-70.002124	-148.936117	46.319855	-24.715349	11.332608	-1.481770	-15.193110	-21.287663	-37.221202	-0.421799	61.105879	-33.485360	1.513770	70.447198	18.664839	-0.347137	-24.785074	
4.0600	-2.301378	2.503129	10.951785	-0.098243	1.030156	0.008643	8.446628	-8.142197	15.775283	-2.102604	2.150494	-3.874604	-46.433709	-73.972724	98.873197	-70.970478	-150.030568	44.842471	-24.487358	11.391492	-1.554547	-15.260865	-21.115440	-37.014466	-0.345660	61.459240	-33.020572	1.743452	70.811502	17.874620	1.429934	-24.621282	
4.0700	-2.294785	2.476795	10.924486	-0.098115	1.030166	0.008663	8.648394	-8.025554	16.313047	-2.157128	2.542824	-4.144731	-45.420506	-73.760302	99.801951	-71.928471	-151.149883	43.127366	-24.089389	11.463282	-1.641380	-15.354876	-20.932062	-36.814790	-0.257785	61.835550	-32.488880	1.958196	71.092674	17.129303	3.324872	-24.304087	
